<?xml version="1.0" standalone="no"?>
<!DOCTYPE svg PUBLIC "-//W3C//DTD SVG 20010904//EN"
 "http://www.w3.org/TR/2001/REC-SVG-20010904/DTD/svg10.dtd">
<svg version="1.0" xmlns="http://www.w3.org/2000/svg"
 width="256.000000pt" height="256.000000pt" viewBox="0 0 256.000000 256.000000"
 preserveAspectRatio="xMidYMid meet">

<g transform="translate(0.000000,256.000000) scale(0.100000,-0.100000)"
fill="#000000" stroke="none">
<path d="M580 2540 c-391 -69 -593 -273 -551 -557 21 -144 91 -270 225 -411
106 -110 214 -197 491 -392 399 -282 531 -403 608 -558 36 -74 41 -93 45 -170
3 -72 0 -97 -18 -145 -43 -115 -173 -211 -349 -259 -65 -18 -104 -21 -271 -21
-170 0 -205 2 -275 21 -271 75 -423 241 -443 487 -6 65 -10 80 -24 83 -17 3
-18 -16 -18 -297 0 -207 3 -301 11 -301 6 0 25 11 42 24 71 55 181 58 342 11
408 -118 916 -34 1139 190 105 105 139 239 102 400 -60 253 -229 431 -765 800
-388 268 -529 413 -576 590 -55 211 56 398 278 472 76 25 95 27 252 27 197 1
271 -13 401 -75 96 -45 175 -119 223 -208 36 -69 71 -194 71 -258 0 -32 4 -43
15 -43 13 0 15 39 15 295 0 222 -3 295 -12 295 -7 0 -24 -11 -38 -25 -54 -51
-176 -53 -329 -5 -163 52 -400 64 -591 30z"/>
<path d="M2300 2548 c95 -42 117 -55 147 -81 40 -35 73 -95 73 -133 0 -42 -40
-102 -90 -134 -109 -70 -284 -57 -349 26 -27 34 -26 57 2 89 39 45 147 47 147
3 0 -16 3 -19 11 -11 17 17 7 46 -21 60 -62 31 -181 -3 -208 -60 -29 -59 13
-129 100 -168 42 -18 71 -23 144 -23 82 -1 96 2 157 32 109 54 160 139 136
228 -21 76 -127 153 -244 177 -29 6 -29 6 -5 -5z"/>
<path d="M2090 2479 c-96 -14 -177 -65 -209 -133 -37 -75 -20 -145 51 -213 37
-36 126 -80 179 -88 26 -5 22 -1 -19 14 -122 46 -198 134 -189 218 10 96 111
166 242 167 124 1 205 -47 205 -120 0 -28 -6 -38 -32 -54 -53 -32 -86 -35
-119 -11 -23 17 -29 18 -29 7 0 -21 51 -46 92 -46 43 1 111 32 132 61 9 13 16
41 16 63 0 93 -155 158 -320 135z"/>
</g>
</svg>
